<svg xmlns="http://www.w3.org/2000/svg" width="13" height="9.75" viewBox="0 0 13 9.75">
    <path id="Контур_116" data-name="Контур 116" d="M11.781-9.75H1.219A1.219,1.219,0,0,0,0-8.531v7.313A1.219,1.219,0,0,0,1.219,0H11.781A1.219,1.219,0,0,0,13-1.219V-8.531A1.219,1.219,0,0,0,11.781-9.75Zm0,1.219V-7.5c-.569.464-1.477,1.185-3.417,2.7C7.936-4.455,7.089-3.647,6.5-3.656c-.589.01-1.437-.8-1.864-1.135C2.7-6.31,1.788-7.031,1.219-7.5V-8.531ZM1.219-1.219V-5.931c.582.463,1.407,1.114,2.664,2.1.555.437,1.527,1.4,2.617,1.4s2.044-.945,2.617-1.4c1.258-.985,2.083-1.635,2.665-2.1v4.713Z" transform="translate(0 9.75)" fill="#f2f2f2"/>
</svg>
