<svg style="width:0; height:0; visibility: hidden;" xmlns="http://www.w3.org/2000/svg">
	<symbol viewBox="0 0 51.515 43.08" id="svg-result1">
		<g>
			
				<path id="Контур_20" data-name="Контур 20"
					d="M752.944,1937.481a16.069,16.069,0,0,0,8.3-6.077c4.081-6.082,2.2-11.457,5.985-11.457,2.242,0,3.318,2.927,3.272,6.295a32.1,32.1,0,0,1-1.254,7.635,1.21,1.21,0,0,0,1.254,1.594h6.462c2.718,0,4.135.144,5.019,1.578,1.53,2.483.14,3.958.388,4.942.482,1.885,1.689,1.834,1.689,4.11,0,1.326-1.25,2.341-1.688,3.471-.381.984.39,2.524.506,3.585.268,2.449-2.366,3.067-2.641,3.929-.324,1.015.2,1.489-.288,3.034-.7,2.208-3.159,2.909-5.2,2.909h-9.708c-6.908,0-6.722-4.418-12.1-4.45Zm-4.266-3.542H732.546v26.791h16.132Zm-2.263,21.885a2.3,2.3,0,1,1-2.3-2.3A2.3,2.3,0,0,1,746.415,1955.824Z"
					transform="translate(-732.546 -1919.947)" ></path>
			
		</g>
	</symbol>

	<symbol viewBox="0 0 31.508 43.08" id="svg-result2">
		<g>
			
				<path id="Контур_26" data-name="Контур 26"
					d="M1362.8,239.163c.989.012,1.972.042,2.932.09a3.686,3.686,0,0,1-.807-2.056c-.81-.031-1.643-.05-2.493-.057a3.686,3.686,0,0,1,.386,1.648C1362.822,238.914,1362.816,239.039,1362.8,239.163Z"
					transform="translate(-1346.104 -230.048)" ></path>
				<path id="Контур_27" data-name="Контур 27"
					d="M1296.893,242.047c0-1.3-1.967-2.316-5.147-2.9l-.268-.048a3.694,3.694,0,0,1-.957,1.651c-.069.069-.141.135-.214.2q.557.083,1.077.178a13.407,13.407,0,0,1,3.467.873l-.217.212a22.174,22.174,0,0,1-3.249.752,65.65,65.65,0,0,1-12.969.724h-.013c-.1,0-.194,0-.289-.011a52.909,52.909,0,0,1-7.217-.714,22.172,22.172,0,0,1-3.25-.752l-.217-.212a13.407,13.407,0,0,1,3.467-.873c1.153-.211,2.461-.379,3.859-.5a3.731,3.731,0,0,1-.055-.637,3.691,3.691,0,0,1,.276-1.4c-1.659.139-3.162.331-4.443.565-3.18.582-5.147,1.594-5.147,2.9a1.26,1.26,0,0,0,.015.2,1,1,0,0,0,.292.879l3.193,3.114,7.821,7.626c.038.077.374,3.323.64,5.653.14,1.222.26,2.192.309,2.321a6.732,6.732,0,1,0,6.971,0c.042-.12.159-1.073.3-2.281.267-2.338.614-5.631.646-5.7l8.031-7.831,2.983-2.909a1.006,1.006,0,0,0,.293-.879A1.275,1.275,0,0,0,1296.893,242.047Zm-14.72,28.85c-.484.1.069.813-.453.867-.609.063-.661.1-.72-.466-.055-.523-.8.045-1.855-.728a2.059,2.059,0,0,1-.794-1.276.284.284,0,0,1,.248-.344l1.178-.123c.383-.04.263.434.55.724.364.368,1.653.15,1.959-.115a.6.6,0,0,0-.061-.915c-.705-.469-2.343-.183-3.4-.916-1.2-.832-.989-3.08,1.223-3.493.431-.08.022-.629.479-.677.363-.038.69-.146.732.258.053.5.721-.017,1.685.668.54.384,1.074,1.409.5,1.469l-1.088.113c-.342.035-.261-.332-.522-.583a2.159,2.159,0,0,0-1.875.105.567.567,0,0,0,.075.862c.81.505,3.877-.057,4.116,2.227C1284.291,269.892,1283.456,270.629,1282.172,270.9Zm-3.159-14.635-.2-1.74a15.62,15.62,0,0,0,4.651,0l-.2,1.742A6.683,6.683,0,0,1,1279.013,256.262Zm4,2.156-.3,2.635a6.767,6.767,0,0,0-3.148,0l-.3-2.635A8.464,8.464,0,0,0,1283.016,258.418Zm1.256-6.1a13.783,13.783,0,0,1-4.824.256,13.65,13.65,0,0,1-1.445-.259l-2.34-2.282a43.331,43.331,0,0,0,10.952,0Zm4.9-4.78a31.968,31.968,0,0,1-3.662.6,42.423,42.423,0,0,1-8.691.006,32.124,32.124,0,0,1-3.718-.6l-2.676-2.61a69.567,69.567,0,0,0,21.423,0Z"
					transform="translate(-1265.385 -231.249)" ></path>
				<g id="Сгруппировать_18" data-name="Сгруппировать 18" transform="translate(0.686 0)">
					<path id="Контур_28" data-name="Контур 28"
						d="M1422.019,208a2.019,2.019,0,1,0,2.019,2.019A2.019,2.019,0,0,0,1422.019,208Z"
						transform="translate(-1394.666 -205.813)" ></path>
					<ellipse id="Эллипс_1" data-name="Эллипс 1" cx="2.019" cy="2.019" rx="2.019"
						ry="2.019" transform="translate(19.813 4.866)" ></ellipse>
					<ellipse id="Эллипс_2" data-name="Эллипс 2" cx="2.019" cy="2.019" rx="2.019"
						ry="2.019" transform="translate(16.246)" ></ellipse>
					<ellipse id="Эллипс_3" data-name="Эллипс 3" cx="2.019" cy="2.019" rx="2.019"
						ry="2.019" transform="translate(0 2.027)" ></ellipse>
					<ellipse id="Эллипс_4" data-name="Эллипс 4" cx="1.346" cy="1.346" rx="1.346"
						ry="1.346" transform="translate(7.347 0.612)" ></ellipse>
					<ellipse id="Эллипс_5" data-name="Эллипс 5" cx="2.019" cy="2.019" rx="2.019"
						ry="2.019" transform="translate(10.311 6.72)" ></ellipse>
				</g>
			
	</g>
	</symbol>
	<symbol viewBox="0 0 31.557 43.08" id="svg-result3">
		<g>
			
			
			<path id="Контур_29" data-name="Контур 29"
				d="M777.689,350.751c-1.2-2.439-4.578-2.725-7-3.664a65.052,65.052,0,0,1-3.7,11.34l-1.342-6.924.334-1.753-1.41-.791-1.41.791.334,1.753-1.343,6.924a65.072,65.072,0,0,1-3.7-11.34c-2.419.939-5.792,1.225-7,3.664-1.241,2.5-2.462,8.043-2.663,12.48a1.219,1.219,0,0,0,1.217,1.274h29.12a1.219,1.219,0,0,0,1.217-1.274C780.151,358.794,778.93,353.251,777.689,350.751Z"
				transform="translate(-748.797 -321.424)" ></path>
			<path id="Контур_30" data-name="Контур 30"
				d="M771.933,215.015,770.3,217.1l2.714,2.714,2.081-1.631a10.064,10.064,0,0,0,3.158,1.309l.318,2.624h3.838l.318-2.624a10.064,10.064,0,0,0,3.159-1.309l2.081,1.631,2.714-2.714-1.631-2.081a10.062,10.062,0,0,0,1.309-3.159l2.624-.318V207.7l-2.624-.318a10.062,10.062,0,0,0-1.309-3.158l1.631-2.081-2.714-2.714-2.081,1.631a10.065,10.065,0,0,0-3.159-1.309l-.318-2.624h-3.838l-.318,2.624a10.064,10.064,0,0,0-3.158,1.309l-2.081-1.631-2.714,2.714,1.631,2.081a10.06,10.06,0,0,0-1.309,3.158L768,207.7v3.838l2.624.318A10.057,10.057,0,0,0,771.933,215.015Zm3.825-10.129a6.7,6.7,0,1,1-1.96,4.734A6.674,6.674,0,0,1,775.759,204.886Z"
				transform="translate(-764.714 -197.127)"></path>
		
	</g>
	
	</symbol>
	<symbol viewBox="0 0 43.081 43.081" id="svg-result4">
		<g>
			
				<path
					d="M1266.529,1778.093l-8.054,8.054a7.384,7.384,0,0,1,1.424,3.772l3.721.117a5,5,0,0,1,8.323-2.365l1.806-1.316a2.842,2.842,0,1,1,1.028,1.409l-1.806,1.316a4.99,4.99,0,0,1,.51,2.105l4.36.686a2.834,2.834,0,1,1-.268,1.722l-4.36-.686a4.971,4.971,0,0,1-1.127,1.846l1.318,1.807a2.834,2.834,0,1,1-1.407,1.026l-1.319-1.808a5.015,5.015,0,0,1-7.124-3.566l-3.787-.119a7.34,7.34,0,0,1-2,3.7,7.411,7.411,0,0,1-10.48-10.48,7.344,7.344,0,0,1,3.7-2l-.119-3.786a5.016,5.016,0,0,1-3.566-7.124l-1.808-1.319a2.833,2.833,0,1,1,1.026-1.407l1.808,1.318a4.969,4.969,0,0,1,1.847-1.127l-.686-4.36a2.827,2.827,0,1,1,1.721-.268l.686,4.36a4.985,4.985,0,0,1,2.1.51l1.317-1.806a2.838,2.838,0,1,1,1.409,1.028l-1.316,1.806a5,5,0,0,1-2.365,8.323l.118,3.721a7.39,7.39,0,0,1,3.772,1.424l8.054-8.054a5.021,5.021,0,0,1,.681-6.229,4.969,4.969,0,0,1,2.67-1.384l0-4.419a2.838,2.838,0,1,1,1.742,0l0,4.418a4.985,4.985,0,0,1,2,.827l3.272-3.272a2.833,2.833,0,1,1,1.233,1.233l-3.272,3.272a4.988,4.988,0,0,1,.827,2l4.418,0a2.8,2.8,0,0,1,.688-1.131,2.842,2.842,0,1,1-.686,2.873l-4.419,0a4.967,4.967,0,0,1-1.385,2.67A5.022,5.022,0,0,1,1266.529,1778.093Zm-9.656,12.422a4.359,4.359,0,1,0-4.36,4.359A4.359,4.359,0,0,0,1256.873,1790.515Zm14.247.756a2.655,2.655,0,1,0-2.655,2.656A2.656,2.656,0,0,0,1271.12,1791.271Zm.738-17.407a2.656,2.656,0,1,0-2.656,2.655A2.656,2.656,0,0,0,1271.858,1773.864Zm-17.4.744a2.655,2.655,0,1,0-2.655,2.656A2.656,2.656,0,0,0,1254.455,1774.608Z"
					transform="translate(-1240.999 -1759)" fill-rule="evenodd"></path>
		
		</g>
	</symbol>

	<symbol viewBox="0 0 47.346 58.632" id="svg-guarant1">
		<g>
				<g id="Сгруппировать_6722" data-name="Сгруппировать 6722"
					transform="translate(1.5 2.114)">
					<rect id="Прямоугольник_162" data-name="Прямоугольник 162" width="6.44"
						height="18.462" transform="translate(0 36.557)" fill="none" 
						stroke-linecap="round" stroke-linejoin="round" stroke-width="3"></rect>
					<rect id="Прямоугольник_163" data-name="Прямоугольник 163" width="6.44"
						height="23.468" transform="translate(12.536 31.551)" fill="none"
						 stroke-linecap="round" stroke-linejoin="round"
						stroke-width="3"></rect>
					<rect id="Прямоугольник_164" data-name="Прямоугольник 164" width="6.44"
						height="28.796" transform="translate(25.071 26.222)" fill="none"
						 stroke-linecap="round" stroke-linejoin="round"
						stroke-width="3"></rect>
					<rect id="Прямоугольник_165" data-name="Прямоугольник 165" width="6.44"
						height="36.924" transform="translate(37.607 18.094)" fill="none"
						 stroke-linecap="round" stroke-linejoin="round"
						stroke-width="3"></rect>
					<path id="Контур_2254" data-name="Контур 2254"
						d="M-674.805,185.2c-10.367,12.314-20.2,23.33-43.733,23.33"
						transform="translate(718.538 -185.2)" fill="none" 
						stroke-linecap="round" stroke-linejoin="round" stroke-width="3"></path>
					<path id="Контур_2255" data-name="Контур 2255" d="M-674.961,185.2h7.538v7.5"
						transform="translate(711.156 -185.2)" fill="none" 
						stroke-linecap="round" stroke-linejoin="round" stroke-width="3"></path>
				</g>
		</g>
	</symbol>
	<symbol viewBox="0 0 72.252 67.346" id="svg-guarant2">
		<g>

			<g id="Сгруппировать_6723" data-name="Сгруппировать 6723" transform="translate(-1.489 21.776) rotate(-25)">
				<g id="Сгруппировать_1355" data-name="Сгруппировать 1355" transform="translate(3.232 0)">
					<path id="Контур_2280" data-name="Контур 2280" d="M.148,0C.1,0,.049,0,0,0L3.034,18.8,17.759,6.819A26.12,26.12,0,0,0,.148,0Z" transform="translate(25.818)" fill="none" stroke-linecap="round" stroke-linejoin="round" stroke-width="3"></path>
					<path id="Контур_2281" data-name="Контур 2281" d="M0,21.006H21.2L17.807,0A26.436,26.436,0,0,0,0,21.006Z" transform="translate(0 1.308)" fill="none"  stroke-linecap="round" stroke-linejoin="round" stroke-width="3"></path>
					<path id="Контур_2282" data-name="Контур 2282" d="M0,9.163H14.509A26.254,26.254,0,0,0,11.264,0Z" transform="translate(37.424 13.151)" fill="none"  stroke-linecap="round" stroke-linejoin="round" stroke-width="3"></path>
					<path id="Контур_2283" data-name="Контур 2283" d="M19.127,19.4c.051,0,.1,0,.15,0L16.144,0,0,11.084A26.151,26.151,0,0,0,19.127,19.4Z" transform="translate(6.839 33.373)" fill="none"  stroke-linecap="round" stroke-linejoin="round" stroke-width="3"></path>
					<path id="Контур_2284" data-name="Контур 2284" d="M21.2,0H0L3.391,21.006A26.435,26.435,0,0,0,21.2,0Z" transform="translate(30.735 30.464)" fill="none"  stroke-linecap="round" stroke-linejoin="round" stroke-width="3"></path>
				</g>
				<g id="Сгруппировать_1356" data-name="Сгруппировать 1356" transform="translate(0 28.627)">
					<path id="Контур_2285" data-name="Контур 2285" d="M3.057,0,0,5.814l5.782,3.04" transform="translate(0 0.638)" fill="none"  stroke-linecap="round" stroke-linejoin="round" stroke-width="3"></path>
					<line id="Линия_251" data-name="Линия 251" y1="5.427" x2="21.148" transform="translate(2.867)" fill="none"  stroke-linecap="round" stroke-linejoin="round" stroke-width="3"></line>
				</g>
			</g>
              
		</g>
	</symbol>
	<symbol viewBox="0 0 53.433 66.58" id="svg-guarant3">
		<g id="Сгруппировать_6865" data-name="Сгруппировать 6865"
			transform="translate(1.5 2.114)">
			<path id="Контур_2254" data-name="Контур 2254"
				d="M-674.805,185.2c-10.367,12.314-20.2,23.33-43.733,23.33"
				transform="translate(718.538 -185.2)" fill="none" 
				stroke-linecap="round" stroke-linejoin="round" stroke-width="3"></path>
			<path id="Контур_2255" data-name="Контур 2255" d="M-674.961,185.2h7.538v7.5"
				transform="translate(711.156 -185.2)" fill="none" 
				stroke-linecap="round" stroke-linejoin="round" stroke-width="3"></path>
			<text id="_" data-name="€ " transform="translate(6.933 53.467)" 
				font-size="45" font-family="WorkSans-Bold, Work Sans" font-weight="700">
				<tspan x="0" y="0">€</tspan>
			</text>
		</g>
	</symbol>
	
	<symbol>
		<g>
		</g>
	</symbol>
</svg>